PathFileType	4	(X/Y/Z)	D:\TRACE\v60_Jaco2_6-2-23\JustBodyDRS_Motion3_10-v60.trc
DataRate	CameraRate	NumFrames	NumMarkers	Units	OrigDataRate	OrigDataStartFrame	OrigNumFrames
100.00	100.00	      35	9	mm	100.00	4376	      7000
Frame#	Time	front left toe			Front right toe			aft left toe			aft right toe			Arm			FL body			FR body			AL Body			AR Body			
		X1	Y1	Z1	X2	Y2	Z2	X3	Y3	Z3	X4	Y4	Z4	X5	Y5	Z5	X6	Y6	Z6	X7	Y7	Z7	X8	Y8	Z8	X9	Y9	Z9	

4376	43.750	-180.25432	9.83427	-203.39923	193.48534	28.33446	-228.55034	-163.51927	58.89426	405.45291	207.83231	18.62538	404.90958	16.69441	1157.84485	-313.33194	-80.30229	508.57129	-379.63019	78.53713	509.66287	-384.76773	-45.06057	574.64337	562.19403	105.64661	567.21552	557.32172	
4377	43.760	-180.54474	10.03799	-203.25264	193.06471	20.83695	-227.06036	-163.79814	50.88064	406.92569	207.45584	18.07530	405.09650	15.76012	1158.06689	-312.66476	-81.11630	508.74203	-379.20255	76.65111	510.02567	-384.63910	-45.11206	574.21869	562.41705	105.65124	565.82733	556.85529	
4378	43.770	-180.90627	10.21607	-202.98335	192.34546	16.25490	-226.32913	-164.46623	43.97027	408.54816	207.33034	17.45107	405.36612	15.17636	1158.01355	-312.08679	-81.91029	509.04834	-379.04407	76.67162	510.10046	-384.70810	-44.97443	573.25977	562.60187	106.02078	565.37183	557.45667	
4379	43.780	-181.48428	10.60525	-202.78424	192.30809	15.18334	-227.98720	-164.49957	37.83086	409.84705	206.96439	16.63079	405.69937	14.68160	1157.91626	-311.63498	-83.02064	509.30807	-378.95462	75.74557	510.34549	-384.68155	-45.24057	572.73633	562.75861	106.04728	564.81586	557.61243	
4380	43.790	-181.97365	10.96335	-202.42085	192.03760	14.78582	-227.92809	-164.87085	31.16023	410.79297	206.96353	16.41544	405.84595	13.85003	1158.08179	-310.64822	-83.84048	509.94662	-378.82114	74.99608	511.07831	-384.52136	-45.08990	572.04840	562.93976	106.07318	564.29645	557.91107	
4381	43.800	-182.22121	11.36944	-202.09775	191.67953	14.87144	-227.99884	-165.91055	25.13436	411.31760	206.71965	16.10087	406.02728	13.18477	1158.82153	-309.64633	-84.77229	510.94839	-378.52380	73.99481	512.27539	-384.36279	-45.13747	571.27551	563.26196	105.91522	563.37555	557.44189	
4382	43.810	-182.26465	12.03808	-202.07788	191.24722	16.02024	-227.74736	-165.49982	19.09205	409.95941	206.31151	15.62951	406.22870	11.62411	1159.95593	-308.26669	-85.64511	512.18860	-378.38785	73.30206	513.51318	-384.13315	-45.07002	571.11237	563.66144	105.77959	563.07874	557.71594	
4383	43.820	-182.52493	12.46155	-201.52274	190.51855	16.09618	-227.35342	-167.48834	16.54756	409.98041	205.50888	15.07308	406.16275	9.92344	1161.68738	-306.36264	-86.76296	513.07245	-378.01025	72.17545	513.77557	-384.00989	-44.85871	572.38837	564.18762	105.74446	563.70581	557.75916	
4384	43.830	-182.98979	13.97150	-201.42007	189.98166	15.71177	-226.42525	-168.40356	16.18924	412.27689	204.60718	16.56612	405.97458	8.58968	1163.34961	-305.20721	-87.91282	513.38422	-377.56064	71.11263	514.12836	-383.68585	-44.62794	574.08154	564.39404	106.13733	565.20709	557.90778	
4385	43.840	-181.15820	18.53147	-200.07178	189.66972	16.00745	-226.54068	-167.29887	15.39986	412.41431	202.08133	19.11734	409.03928	8.30538	1164.45203	-305.56787	-88.89454	514.38318	-377.19489	69.84415	515.43188	-383.69641	-44.66456	574.17523	564.65186	105.95050	565.50049	557.92267	
4386	43.850	-178.12483	22.14182	-196.21797	188.80185	16.41151	-226.69348	-167.57010	15.28798	412.23679	199.07266	23.41874	412.05942	8.15349	1164.61951	-306.56183	-90.02242	515.60144	-376.99655	68.68865	516.84039	-383.64487	-44.76273	573.27405	564.82886	105.84618	564.99835	557.82373	
4387	43.860	-174.89388	29.15406	-193.62767	188.29488	16.54593	-226.84720	-168.72504	15.09187	412.30554	197.78468	32.15170	414.35294	7.78348	1164.28516	-306.89706	-91.14135	516.60797	-377.14151	67.81554	517.59741	-383.78897	-44.90542	572.92566	564.74274	105.72529	564.26520	557.68359	
4388	43.870	-175.35806	40.63346	-194.86116	187.70592	16.70081	-226.84868	-168.50504	14.09607	412.40900	196.18916	41.23245	413.65799	7.52457	1164.22070	-306.13791	-91.77795	517.19104	-377.22748	67.19410	518.03186	-383.85803	-44.82265	572.47748	564.82141	105.62922	563.56317	557.89777	
4389	43.880	-177.47224	50.87589	-195.49286	187.18463	16.74487	-226.89136	-168.81113	13.79701	412.76181	196.69051	51.89734	411.63562	6.58333	1165.04919	-304.71759	-92.17434	517.24841	-377.26291	66.82640	518.23334	-384.08334	-45.57286	571.70660	564.84930	105.36861	563.18134	557.89972	
4390	43.890	-179.09633	61.88914	-196.90976	186.59540	16.78447	-226.73882	-169.19310	13.51358	413.16254	198.02031	63.59152	408.46863	5.78983	1165.98425	-302.98291	-92.31767	517.25153	-377.42065	66.54477	518.27734	-384.13452	-45.71459	570.93311	564.86945	104.82417	562.12366	557.77527	
4391	43.900	-183.04453	75.27728	-199.36861	187.72519	17.53043	-225.76025	-169.32680	12.19676	413.22055	200.15176	74.47082	406.43250	4.63782	1166.37036	-301.68546	-92.39155	517.36395	-377.47226	66.28473	518.61389	-384.38083	-46.71519	569.32599	564.79822	104.11729	560.64923	557.72528	
4392	43.910	-184.44275	86.70045	-200.96561	187.53993	17.58655	-225.61284	-170.19579	11.68441	413.60880	201.62074	85.38663	404.65518	4.40091	1166.16187	-300.91046	-92.64217	517.73004	-377.66760	66.08579	518.91064	-384.51208	-47.67859	567.88947	564.68848	103.74698	559.38495	557.79193	
4393	43.920	-185.19797	98.17632	-202.57893	187.39903	17.79256	-225.53491	-169.76674	10.96470	413.30920	202.15475	95.86843	402.77908	4.40694	1165.93774	-300.17148	-93.08595	518.09760	-378.00977	65.66560	519.48303	-384.60342	-48.40631	566.38477	564.52423	102.40277	557.85913	557.79059	
4394	43.930	-185.90883	108.68443	-204.23595	186.36945	18.01370	-225.45354	-170.15155	10.41114	413.40906	201.45772	105.67883	401.09064	4.46663	1165.79492	-299.58212	-93.34503	518.47101	-378.13318	65.19247	520.03027	-384.73761	-49.11188	564.74261	564.42487	101.41548	556.41803	557.84833	
4395	43.940	-186.48967	118.24580	-205.70201	186.02557	18.18402	-225.48633	-170.65115	10.12443	413.52069	200.57829	114.79900	399.82135	4.71181	1165.89587	-298.43884	-93.67530	518.79346	-378.39374	65.05804	520.27795	-384.94669	-49.65658	563.49292	564.32678	102.03935	555.17743	557.85754	
4396	43.950	-187.26402	127.08041	-207.25662	185.75728	18.33428	-225.51157	-171.22258	10.13866	413.78723	200.22133	123.29343	398.87790	4.09828	1166.21985	-297.21075	-94.02744	519.22729	-378.72812	64.86060	520.33887	-384.92691	-50.80424	562.66968	564.34979	100.28705	554.30084	557.85986	
4397	43.960	-188.56450	134.70819	-208.58577	186.74454	18.86494	-225.12177	-171.25812	9.00946	413.79547	200.11728	130.78995	397.62894	3.38754	1166.86292	-296.02310	-94.25836	519.41797	-378.86578	64.78732	520.47345	-384.92160	-51.57676	561.31390	564.25769	99.33444	553.19122	557.91608	
4398	43.970	-190.65851	141.40805	-209.96671	186.35489	19.15983	-225.00774	-171.77394	8.63657	413.84351	199.13109	136.64418	396.31433	2.29725	1167.16101	-294.87585	-94.25808	519.64301	-378.94778	63.77867	521.02008	-384.53098	-52.42161	560.51184	564.26813	98.46575	552.27576	557.88104	
4399	43.980	-192.30614	146.06503	-211.07425	185.36070	19.28598	-224.84697	-171.85539	8.12629	414.07339	199.98666	140.76704	395.62241	1.48381	1167.45337	-294.36115	-94.37642	519.90594	-378.85876	63.57973	521.42505	-384.80585	-53.23705	559.38251	564.21582	98.32217	551.12933	558.08087	
4400	43.990	-194.10997	148.89113	-211.98668	185.28183	19.66577	-224.32005	-171.99399	7.68748	414.21460	199.15878	141.75240	395.15921	1.12000	1167.50623	-293.64493	-94.50339	520.24762	-378.80441	63.92242	521.88129	-384.84909	-54.24711	558.93463	564.30237	96.62835	550.64618	558.16986	
4401	44.000	-195.20657	147.51099	-212.28734	185.79118	19.95605	-224.23909	-172.27460	7.16628	414.39478	199.38356	139.90907	395.48904	0.97948	1167.61804	-293.10880	-94.73917	520.56647	-378.79620	63.83897	522.16467	-384.68936	-55.53400	558.32428	564.35651	96.12691	550.05017	558.39783	
4402	44.010	-195.72574	143.63283	-212.23590	184.75926	20.13719	-223.96828	-172.73581	7.04934	414.58060	198.24541	136.25745	395.85135	1.12973	1167.84912	-292.75137	-95.14411	521.01068	-378.89590	63.74442	522.52753	-384.41241	-56.24857	557.76288	564.40656	94.80759	549.48804	558.43378	
4403	44.020	-195.79819	138.66176	-211.90320	185.52820	20.65705	-223.71931	-172.82491	6.56883	414.73907	196.77985	131.28874	396.77628	1.33945	1168.13660	-291.82898	-95.51271	521.27673	-378.93008	63.28436	523.03986	-384.34604	-57.21313	557.08917	564.58350	93.48889	549.08331	558.48627	
4404	44.030	-196.33704	133.37581	-211.64423	185.43980	20.83785	-223.57956	-173.06688	6.15684	415.00900	195.94635	126.21063	397.44940	0.98580	1168.66321	-290.93707	-95.76302	521.66425	-378.86743	62.39737	523.53009	-384.13535	-57.99953	556.75787	564.47107	92.81738	548.71722	558.67139	
4405	44.040	-197.34395	127.76946	-211.39870	185.25110	20.98976	-223.55135	-172.74333	5.44442	414.64417	194.23392	120.70167	397.98123	0.52617	1169.01379	-290.01523	-95.88555	521.89661	-378.92886	62.87426	523.67682	-384.32880	-59.17202	556.43756	564.45923	91.87280	548.30157	558.78204	
4406	44.050	-198.63251	121.62613	-211.77809	185.16516	21.19693	-223.46497	-172.86174	4.98393	414.72974	193.77710	114.91850	397.88849	-0.09177	1169.40149	-289.46075	-95.97829	522.26764	-378.92459	62.57958	523.89691	-384.31021	-60.09337	555.97931	564.62067	91.59139	547.83191	558.93640	
4407	44.060	-200.11659	115.45988	-212.57184	185.16060	21.40965	-223.36844	-172.94978	4.62299	414.82178	192.02330	108.53410	397.04831	-0.84051	1169.48022	-289.23505	-96.19749	522.58032	-378.94302	62.39696	524.21167	-384.25995	-60.93235	555.42566	564.65375	89.96807	547.11646	559.06152	
4408	44.070	-201.61044	108.88142	-213.42896	183.99216	21.45746	-223.38887	-173.06178	4.22158	414.80508	191.58441	101.45406	396.51840	-1.55237	1169.54541	-288.97852	-96.63731	523.13409	-379.16333	62.17079	524.51703	-384.17294	-62.06458	554.66132	564.56995	89.25885	546.56842	559.31012	
4409	44.080	-202.48247	101.73002	-214.06955	185.06752	22.25990	-222.74745	-173.17081	3.87537	414.88217	190.08180	94.04733	395.99384	-1.97045	1169.62793	-288.62515	-96.80024	523.31415	-379.19376	61.93036	524.91882	-384.08386	-62.93925	554.31714	564.46655	88.61729	545.98822	559.41302	
4410	44.090	-203.59959	93.88071	-214.65807	184.92435	22.41216	-222.69232	-174.03377	3.90371	415.46603	189.22557	86.27342	395.84973	-2.22773	1169.92896	-287.96503	-97.03185	523.50732	-379.25977	60.86205	525.45697	-383.85608	-63.97006	553.59009	564.43469	87.65342	545.60968	559.58929	
